<mxfile host="app.diagrams.net" agent="Mozilla/5.0 (Windows NT 10.0; Win64; x64) AppleWebKit/537.36 (KHTML, like Gecko) Chrome/135.0.0.0 Safari/537.36" version="26.2.12">
  <diagram name="第 1 页" id="IvPZlndUoE6Re-1l50dJ">
    <mxGraphModel dx="1044" dy="562" grid="0" gridSize="10" guides="1" tooltips="1" connect="1" arrows="1" fold="1" page="1" pageScale="1" pageWidth="827" pageHeight="1169" math="0" shadow="0">
      <root>
        <mxCell id="0" />
        <mxCell id="1" parent="0" />
        <mxCell id="4BrUw0PnxXfCZn6Bulv5-68" value="" style="whiteSpace=wrap;html=1;aspect=fixed;dashed=1;dashPattern=8 8;" vertex="1" parent="1">
          <mxGeometry x="13" y="941" width="106" height="106" as="geometry" />
        </mxCell>
        <mxCell id="4BrUw0PnxXfCZn6Bulv5-29" value="" style="ellipse;whiteSpace=wrap;html=1;fillColor=#f5f5f5;strokeColor=#666666;fontColor=#333333;dashed=1;" vertex="1" parent="1">
          <mxGeometry x="597" y="856" width="98" height="40" as="geometry" />
        </mxCell>
        <mxCell id="4BrUw0PnxXfCZn6Bulv5-28" value="" style="ellipse;whiteSpace=wrap;html=1;fillColor=#f5f5f5;strokeColor=#666666;fontColor=#333333;dashed=1;" vertex="1" parent="1">
          <mxGeometry x="593" y="559" width="98" height="40" as="geometry" />
        </mxCell>
        <mxCell id="4BrUw0PnxXfCZn6Bulv5-26" value="逐渐平衡采样" style="rounded=1;whiteSpace=wrap;html=1;strokeColor=none;fillColor=none;" vertex="1" parent="1">
          <mxGeometry x="597" y="562" width="90" height="34" as="geometry" />
        </mxCell>
        <mxCell id="4BrUw0PnxXfCZn6Bulv5-37" style="edgeStyle=orthogonalEdgeStyle;curved=1;rounded=0;orthogonalLoop=1;jettySize=auto;html=1;exitX=1;exitY=0.5;exitDx=0;exitDy=0;entryX=0;entryY=0.5;entryDx=0;entryDy=0;" edge="1" parent="1" source="4BrUw0PnxXfCZn6Bulv5-1" target="4BrUw0PnxXfCZn6Bulv5-35">
          <mxGeometry relative="1" as="geometry" />
        </mxCell>
        <mxCell id="4BrUw0PnxXfCZn6Bulv5-39" style="edgeStyle=orthogonalEdgeStyle;curved=1;rounded=0;orthogonalLoop=1;jettySize=auto;html=1;exitX=1;exitY=0.5;exitDx=0;exitDy=0;entryX=0;entryY=0.5;entryDx=0;entryDy=0;" edge="1" parent="1" source="4BrUw0PnxXfCZn6Bulv5-1" target="4BrUw0PnxXfCZn6Bulv5-36">
          <mxGeometry relative="1" as="geometry" />
        </mxCell>
        <mxCell id="4BrUw0PnxXfCZn6Bulv5-1" value="类别不均衡方法" style="rounded=1;whiteSpace=wrap;html=1;fillColor=#f5f5f5;strokeColor=#666666;fontColor=#333333;" vertex="1" parent="1">
          <mxGeometry x="20" y="635" width="120" height="60" as="geometry" />
        </mxCell>
        <mxCell id="4BrUw0PnxXfCZn6Bulv5-18" style="edgeStyle=orthogonalEdgeStyle;rounded=0;orthogonalLoop=1;jettySize=auto;html=1;exitX=1;exitY=0.5;exitDx=0;exitDy=0;curved=1;" edge="1" parent="1" source="4BrUw0PnxXfCZn6Bulv5-3" target="4BrUw0PnxXfCZn6Bulv5-16">
          <mxGeometry relative="1" as="geometry" />
        </mxCell>
        <mxCell id="4BrUw0PnxXfCZn6Bulv5-19" style="edgeStyle=orthogonalEdgeStyle;rounded=0;orthogonalLoop=1;jettySize=auto;html=1;exitX=1;exitY=0.5;exitDx=0;exitDy=0;curved=1;" edge="1" parent="1" source="4BrUw0PnxXfCZn6Bulv5-3" target="4BrUw0PnxXfCZn6Bulv5-15">
          <mxGeometry relative="1" as="geometry" />
        </mxCell>
        <mxCell id="4BrUw0PnxXfCZn6Bulv5-20" style="edgeStyle=orthogonalEdgeStyle;rounded=0;orthogonalLoop=1;jettySize=auto;html=1;exitX=1;exitY=0.5;exitDx=0;exitDy=0;entryX=0;entryY=0.5;entryDx=0;entryDy=0;curved=1;" edge="1" parent="1" source="4BrUw0PnxXfCZn6Bulv5-3" target="4BrUw0PnxXfCZn6Bulv5-17">
          <mxGeometry relative="1" as="geometry" />
        </mxCell>
        <mxCell id="4BrUw0PnxXfCZn6Bulv5-3" value="集成方法" style="shape=ext;double=1;rounded=1;whiteSpace=wrap;html=1;" vertex="1" parent="1">
          <mxGeometry x="399" y="633" width="120" height="80" as="geometry" />
        </mxCell>
        <mxCell id="4BrUw0PnxXfCZn6Bulv5-13" style="edgeStyle=orthogonalEdgeStyle;rounded=0;orthogonalLoop=1;jettySize=auto;html=1;exitX=1;exitY=0.5;exitDx=0;exitDy=0;curved=1;" edge="1" parent="1" source="4BrUw0PnxXfCZn6Bulv5-4" target="4BrUw0PnxXfCZn6Bulv5-11">
          <mxGeometry relative="1" as="geometry" />
        </mxCell>
        <mxCell id="4BrUw0PnxXfCZn6Bulv5-14" style="edgeStyle=orthogonalEdgeStyle;rounded=0;orthogonalLoop=1;jettySize=auto;html=1;exitX=1;exitY=0.5;exitDx=0;exitDy=0;curved=1;" edge="1" parent="1" source="4BrUw0PnxXfCZn6Bulv5-4" target="4BrUw0PnxXfCZn6Bulv5-12">
          <mxGeometry relative="1" as="geometry" />
        </mxCell>
        <mxCell id="4BrUw0PnxXfCZn6Bulv5-27" style="edgeStyle=orthogonalEdgeStyle;rounded=0;orthogonalLoop=1;jettySize=auto;html=1;exitX=1;exitY=0.5;exitDx=0;exitDy=0;entryX=0;entryY=0.5;entryDx=0;entryDy=0;curved=1;" edge="1" parent="1" source="4BrUw0PnxXfCZn6Bulv5-4" target="4BrUw0PnxXfCZn6Bulv5-26">
          <mxGeometry relative="1" as="geometry" />
        </mxCell>
        <mxCell id="4BrUw0PnxXfCZn6Bulv5-4" value="重采样方法" style="shape=ext;double=1;rounded=1;whiteSpace=wrap;html=1;" vertex="1" parent="1">
          <mxGeometry x="399" y="499" width="120" height="80" as="geometry" />
        </mxCell>
        <mxCell id="4BrUw0PnxXfCZn6Bulv5-30" style="edgeStyle=orthogonalEdgeStyle;rounded=0;orthogonalLoop=1;jettySize=auto;html=1;exitX=1;exitY=0.5;exitDx=0;exitDy=0;curved=1;" edge="1" parent="1" source="4BrUw0PnxXfCZn6Bulv5-5" target="4BrUw0PnxXfCZn6Bulv5-21">
          <mxGeometry relative="1" as="geometry" />
        </mxCell>
        <mxCell id="4BrUw0PnxXfCZn6Bulv5-31" style="edgeStyle=orthogonalEdgeStyle;curved=1;rounded=0;orthogonalLoop=1;jettySize=auto;html=1;exitX=1;exitY=0.5;exitDx=0;exitDy=0;entryX=0;entryY=0.5;entryDx=0;entryDy=0;" edge="1" parent="1" source="4BrUw0PnxXfCZn6Bulv5-5" target="4BrUw0PnxXfCZn6Bulv5-23">
          <mxGeometry relative="1" as="geometry" />
        </mxCell>
        <mxCell id="4BrUw0PnxXfCZn6Bulv5-32" style="edgeStyle=orthogonalEdgeStyle;curved=1;rounded=0;orthogonalLoop=1;jettySize=auto;html=1;exitX=1;exitY=0.5;exitDx=0;exitDy=0;" edge="1" parent="1" source="4BrUw0PnxXfCZn6Bulv5-5" target="4BrUw0PnxXfCZn6Bulv5-22">
          <mxGeometry relative="1" as="geometry" />
        </mxCell>
        <mxCell id="4BrUw0PnxXfCZn6Bulv5-33" style="edgeStyle=orthogonalEdgeStyle;curved=1;rounded=0;orthogonalLoop=1;jettySize=auto;html=1;exitX=1;exitY=0.5;exitDx=0;exitDy=0;entryX=0;entryY=0.5;entryDx=0;entryDy=0;" edge="1" parent="1" source="4BrUw0PnxXfCZn6Bulv5-5" target="4BrUw0PnxXfCZn6Bulv5-24">
          <mxGeometry relative="1" as="geometry" />
        </mxCell>
        <mxCell id="4BrUw0PnxXfCZn6Bulv5-5" value="重加权方法" style="shape=ext;double=1;rounded=1;whiteSpace=wrap;html=1;" vertex="1" parent="1">
          <mxGeometry x="396" y="748" width="120" height="80" as="geometry" />
        </mxCell>
        <mxCell id="4BrUw0PnxXfCZn6Bulv5-11" value="过采样" style="rounded=1;whiteSpace=wrap;html=1;strokeColor=none;" vertex="1" parent="1">
          <mxGeometry x="591" y="465" width="90" height="34" as="geometry" />
        </mxCell>
        <mxCell id="4BrUw0PnxXfCZn6Bulv5-12" value="欠采样" style="rounded=1;whiteSpace=wrap;html=1;strokeColor=none;" vertex="1" parent="1">
          <mxGeometry x="591" y="518" width="90" height="34" as="geometry" />
        </mxCell>
        <mxCell id="4BrUw0PnxXfCZn6Bulv5-15" value="Boosting" style="rounded=1;whiteSpace=wrap;html=1;strokeColor=none;" vertex="1" parent="1">
          <mxGeometry x="605" y="656" width="90" height="34" as="geometry" />
        </mxCell>
        <mxCell id="4BrUw0PnxXfCZn6Bulv5-16" value="Bagging" style="rounded=1;whiteSpace=wrap;html=1;strokeColor=none;" vertex="1" parent="1">
          <mxGeometry x="601" y="609" width="90" height="34" as="geometry" />
        </mxCell>
        <mxCell id="4BrUw0PnxXfCZn6Bulv5-17" value="集成深度学习结构" style="rounded=1;whiteSpace=wrap;html=1;strokeColor=none;" vertex="1" parent="1">
          <mxGeometry x="601" y="697" width="102" height="34" as="geometry" />
        </mxCell>
        <mxCell id="4BrUw0PnxXfCZn6Bulv5-21" value="加权交叉熵损失（WCE）" style="rounded=1;whiteSpace=wrap;html=1;strokeColor=none;" vertex="1" parent="1">
          <mxGeometry x="601" y="737" width="90" height="34" as="geometry" />
        </mxCell>
        <mxCell id="4BrUw0PnxXfCZn6Bulv5-22" value="成本敏感学习（CB）" style="rounded=1;whiteSpace=wrap;html=1;strokeColor=none;" vertex="1" parent="1">
          <mxGeometry x="601" y="815" width="90" height="34" as="geometry" />
        </mxCell>
        <mxCell id="4BrUw0PnxXfCZn6Bulv5-23" value="焦点损失（FL）" style="rounded=1;whiteSpace=wrap;html=1;strokeColor=none;" vertex="1" parent="1">
          <mxGeometry x="601" y="775" width="90" height="34" as="geometry" />
        </mxCell>
        <mxCell id="4BrUw0PnxXfCZn6Bulv5-24" value="亲和力损失&lt;div&gt;（AffinityLoss）&lt;/div&gt;" style="rounded=1;whiteSpace=wrap;html=1;strokeColor=none;dashed=1;fillColor=none;" vertex="1" parent="1">
          <mxGeometry x="601" y="859" width="90" height="34" as="geometry" />
        </mxCell>
        <mxCell id="4BrUw0PnxXfCZn6Bulv5-43" style="edgeStyle=orthogonalEdgeStyle;curved=1;rounded=0;orthogonalLoop=1;jettySize=auto;html=1;exitX=1;exitY=0.5;exitDx=0;exitDy=0;entryX=0;entryY=0.5;entryDx=0;entryDy=0;" edge="1" parent="1" source="4BrUw0PnxXfCZn6Bulv5-35" target="4BrUw0PnxXfCZn6Bulv5-4">
          <mxGeometry relative="1" as="geometry" />
        </mxCell>
        <mxCell id="4BrUw0PnxXfCZn6Bulv5-35" value="数据层面" style="rounded=1;whiteSpace=wrap;html=1;fillColor=#d5e8d4;strokeColor=#82b366;" vertex="1" parent="1">
          <mxGeometry x="193" y="509" width="120" height="60" as="geometry" />
        </mxCell>
        <mxCell id="4BrUw0PnxXfCZn6Bulv5-41" style="edgeStyle=orthogonalEdgeStyle;curved=1;rounded=0;orthogonalLoop=1;jettySize=auto;html=1;exitX=1;exitY=0.5;exitDx=0;exitDy=0;entryX=0;entryY=0.5;entryDx=0;entryDy=0;" edge="1" parent="1" source="4BrUw0PnxXfCZn6Bulv5-36" target="4BrUw0PnxXfCZn6Bulv5-3">
          <mxGeometry relative="1" as="geometry" />
        </mxCell>
        <mxCell id="4BrUw0PnxXfCZn6Bulv5-42" style="edgeStyle=orthogonalEdgeStyle;curved=1;rounded=0;orthogonalLoop=1;jettySize=auto;html=1;exitX=1;exitY=0.5;exitDx=0;exitDy=0;" edge="1" parent="1" source="4BrUw0PnxXfCZn6Bulv5-36" target="4BrUw0PnxXfCZn6Bulv5-5">
          <mxGeometry relative="1" as="geometry" />
        </mxCell>
        <mxCell id="4BrUw0PnxXfCZn6Bulv5-36" value="算法层面" style="rounded=1;whiteSpace=wrap;html=1;fillColor=#d5e8d4;strokeColor=#82b366;" vertex="1" parent="1">
          <mxGeometry x="193" y="721" width="120" height="60" as="geometry" />
        </mxCell>
        <mxCell id="4BrUw0PnxXfCZn6Bulv5-45" value="" style="whiteSpace=wrap;html=1;aspect=fixed;fillColor=#1ba1e2;strokeColor=none;fontColor=#ffffff;" vertex="1" parent="1">
          <mxGeometry x="90" y="955" width="13" height="13" as="geometry" />
        </mxCell>
        <mxCell id="4BrUw0PnxXfCZn6Bulv5-46" value="" style="whiteSpace=wrap;html=1;aspect=fixed;fillColor=#1ba1e2;strokeColor=none;fontColor=#ffffff;" vertex="1" parent="1">
          <mxGeometry x="52" y="981.5" width="13" height="13" as="geometry" />
        </mxCell>
        <mxCell id="4BrUw0PnxXfCZn6Bulv5-47" value="" style="whiteSpace=wrap;html=1;aspect=fixed;fillColor=#1ba1e2;strokeColor=none;fontColor=#ffffff;" vertex="1" parent="1">
          <mxGeometry x="90" y="1011" width="13" height="13" as="geometry" />
        </mxCell>
        <mxCell id="4BrUw0PnxXfCZn6Bulv5-53" value="" style="rhombus;whiteSpace=wrap;html=1;fillColor=#d80073;strokeColor=none;fontColor=#ffffff;" vertex="1" parent="1">
          <mxGeometry x="45" y="952" width="14" height="14" as="geometry" />
        </mxCell>
        <mxCell id="4BrUw0PnxXfCZn6Bulv5-54" value="" style="rhombus;whiteSpace=wrap;html=1;fillColor=#d80073;strokeColor=none;fontColor=#ffffff;" vertex="1" parent="1">
          <mxGeometry x="90" y="980.5" width="14" height="14" as="geometry" />
        </mxCell>
        <mxCell id="4BrUw0PnxXfCZn6Bulv5-55" value="" style="rhombus;whiteSpace=wrap;html=1;fillColor=#d80073;strokeColor=none;fontColor=#ffffff;" vertex="1" parent="1">
          <mxGeometry x="54" y="1006" width="14" height="14" as="geometry" />
        </mxCell>
        <mxCell id="4BrUw0PnxXfCZn6Bulv5-57" value="" style="rhombus;whiteSpace=wrap;html=1;fillColor=#d80073;strokeColor=none;fontColor=#ffffff;" vertex="1" parent="1">
          <mxGeometry x="67.5" y="959" width="14" height="14" as="geometry" />
        </mxCell>
        <mxCell id="4BrUw0PnxXfCZn6Bulv5-59" value="" style="rhombus;whiteSpace=wrap;html=1;fillColor=#d80073;strokeColor=none;fontColor=#ffffff;" vertex="1" parent="1">
          <mxGeometry x="76" y="1028" width="14" height="14" as="geometry" />
        </mxCell>
        <mxCell id="4BrUw0PnxXfCZn6Bulv5-60" value="" style="rhombus;whiteSpace=wrap;html=1;fillColor=#d80073;strokeColor=none;fontColor=#ffffff;" vertex="1" parent="1">
          <mxGeometry x="23" y="1014" width="14" height="14" as="geometry" />
        </mxCell>
        <mxCell id="4BrUw0PnxXfCZn6Bulv5-61" value="" style="ellipse;whiteSpace=wrap;html=1;aspect=fixed;fillColor=#60a917;fontColor=#ffffff;strokeColor=none;" vertex="1" parent="1">
          <mxGeometry x="23" y="959" width="14" height="14" as="geometry" />
        </mxCell>
        <mxCell id="4BrUw0PnxXfCZn6Bulv5-62" value="" style="ellipse;whiteSpace=wrap;html=1;aspect=fixed;fillColor=#60a917;fontColor=#ffffff;strokeColor=none;" vertex="1" parent="1">
          <mxGeometry x="70" y="1000" width="14" height="14" as="geometry" />
        </mxCell>
        <mxCell id="4BrUw0PnxXfCZn6Bulv5-63" value="" style="ellipse;whiteSpace=wrap;html=1;aspect=fixed;fillColor=#60a917;fontColor=#ffffff;strokeColor=none;" vertex="1" parent="1">
          <mxGeometry x="40" y="1014" width="14" height="14" as="geometry" />
        </mxCell>
        <mxCell id="4BrUw0PnxXfCZn6Bulv5-64" value="" style="ellipse;whiteSpace=wrap;html=1;aspect=fixed;fillColor=#60a917;fontColor=#ffffff;strokeColor=none;" vertex="1" parent="1">
          <mxGeometry x="26" y="987" width="14" height="14" as="geometry" />
        </mxCell>
        <mxCell id="4BrUw0PnxXfCZn6Bulv5-111" value="" style="group" vertex="1" connectable="0" parent="1">
          <mxGeometry x="202" y="937" width="135" height="143" as="geometry" />
        </mxCell>
        <mxCell id="4BrUw0PnxXfCZn6Bulv5-92" style="edgeStyle=orthogonalEdgeStyle;curved=1;rounded=0;orthogonalLoop=1;jettySize=auto;html=1;exitX=0.5;exitY=1;exitDx=0;exitDy=0;entryX=0.5;entryY=1;entryDx=0;entryDy=0;endArrow=none;startFill=0;dashed=1;dashPattern=1 2;" edge="1" parent="4BrUw0PnxXfCZn6Bulv5-111" source="4BrUw0PnxXfCZn6Bulv5-73" target="4BrUw0PnxXfCZn6Bulv5-88">
          <mxGeometry relative="1" as="geometry" />
        </mxCell>
        <mxCell id="4BrUw0PnxXfCZn6Bulv5-73" value="" style="rhombus;whiteSpace=wrap;html=1;fillColor=#d80073;strokeColor=none;fontColor=#ffffff;" vertex="1" parent="4BrUw0PnxXfCZn6Bulv5-111">
          <mxGeometry x="24.75" width="14" height="14" as="geometry" />
        </mxCell>
        <mxCell id="4BrUw0PnxXfCZn6Bulv5-95" style="edgeStyle=orthogonalEdgeStyle;curved=1;rounded=0;orthogonalLoop=1;jettySize=auto;html=1;exitX=1;exitY=0;exitDx=0;exitDy=0;entryX=0;entryY=0.25;entryDx=0;entryDy=0;dashed=1;dashPattern=1 1;endArrow=none;startFill=0;" edge="1" parent="4BrUw0PnxXfCZn6Bulv5-111" source="4BrUw0PnxXfCZn6Bulv5-74" target="4BrUw0PnxXfCZn6Bulv5-88">
          <mxGeometry relative="1" as="geometry" />
        </mxCell>
        <mxCell id="4BrUw0PnxXfCZn6Bulv5-74" value="" style="rhombus;whiteSpace=wrap;html=1;fillColor=#d80073;strokeColor=none;fontColor=#ffffff;" vertex="1" parent="4BrUw0PnxXfCZn6Bulv5-111">
          <mxGeometry x="3" y="39" width="14" height="14" as="geometry" />
        </mxCell>
        <mxCell id="4BrUw0PnxXfCZn6Bulv5-93" style="edgeStyle=orthogonalEdgeStyle;curved=1;rounded=0;orthogonalLoop=1;jettySize=auto;html=1;exitX=1;exitY=0;exitDx=0;exitDy=0;entryX=0;entryY=0.75;entryDx=0;entryDy=0;dashed=1;dashPattern=1 1;endArrow=none;startFill=0;" edge="1" parent="4BrUw0PnxXfCZn6Bulv5-111" source="4BrUw0PnxXfCZn6Bulv5-75" target="4BrUw0PnxXfCZn6Bulv5-88">
          <mxGeometry relative="1" as="geometry" />
        </mxCell>
        <mxCell id="4BrUw0PnxXfCZn6Bulv5-75" value="" style="rhombus;whiteSpace=wrap;html=1;fillColor=#d80073;strokeColor=none;fontColor=#ffffff;" vertex="1" parent="4BrUw0PnxXfCZn6Bulv5-111">
          <mxGeometry y="15" width="14" height="14" as="geometry" />
        </mxCell>
        <mxCell id="4BrUw0PnxXfCZn6Bulv5-99" style="edgeStyle=orthogonalEdgeStyle;curved=1;rounded=0;orthogonalLoop=1;jettySize=auto;html=1;exitX=0;exitY=0.5;exitDx=0;exitDy=0;entryX=0;entryY=0.25;entryDx=0;entryDy=0;dashed=1;dashPattern=1 1;endArrow=none;startFill=0;" edge="1" parent="4BrUw0PnxXfCZn6Bulv5-111" source="4BrUw0PnxXfCZn6Bulv5-76" target="4BrUw0PnxXfCZn6Bulv5-88">
          <mxGeometry relative="1" as="geometry" />
        </mxCell>
        <mxCell id="4BrUw0PnxXfCZn6Bulv5-76" value="" style="rhombus;whiteSpace=wrap;html=1;fillColor=#d80073;strokeColor=none;fontColor=#ffffff;" vertex="1" parent="4BrUw0PnxXfCZn6Bulv5-111">
          <mxGeometry x="61.25" y="41" width="14" height="14" as="geometry" />
        </mxCell>
        <mxCell id="4BrUw0PnxXfCZn6Bulv5-100" style="edgeStyle=orthogonalEdgeStyle;curved=1;rounded=0;orthogonalLoop=1;jettySize=auto;html=1;exitX=0.5;exitY=1;exitDx=0;exitDy=0;entryX=0.5;entryY=1;entryDx=0;entryDy=0;dashed=1;dashPattern=1 1;endArrow=none;startFill=0;" edge="1" parent="4BrUw0PnxXfCZn6Bulv5-111" source="4BrUw0PnxXfCZn6Bulv5-77" target="4BrUw0PnxXfCZn6Bulv5-88">
          <mxGeometry relative="1" as="geometry" />
        </mxCell>
        <mxCell id="4BrUw0PnxXfCZn6Bulv5-77" value="" style="rhombus;whiteSpace=wrap;html=1;fillColor=#d80073;strokeColor=none;fontColor=#ffffff;" vertex="1" parent="4BrUw0PnxXfCZn6Bulv5-111">
          <mxGeometry x="47.25" y="7" width="14" height="14" as="geometry" />
        </mxCell>
        <mxCell id="4BrUw0PnxXfCZn6Bulv5-96" style="edgeStyle=orthogonalEdgeStyle;curved=1;rounded=0;orthogonalLoop=1;jettySize=auto;html=1;exitX=1;exitY=0;exitDx=0;exitDy=0;entryX=0;entryY=0.75;entryDx=0;entryDy=0;dashed=1;dashPattern=1 1;endArrow=none;startFill=0;" edge="1" parent="4BrUw0PnxXfCZn6Bulv5-111" source="4BrUw0PnxXfCZn6Bulv5-78" target="4BrUw0PnxXfCZn6Bulv5-88">
          <mxGeometry relative="1" as="geometry" />
        </mxCell>
        <mxCell id="4BrUw0PnxXfCZn6Bulv5-78" value="" style="rhombus;whiteSpace=wrap;html=1;fillColor=#d80073;strokeColor=none;fontColor=#ffffff;" vertex="1" parent="4BrUw0PnxXfCZn6Bulv5-111">
          <mxGeometry x="9" y="57" width="14" height="14" as="geometry" />
        </mxCell>
        <mxCell id="4BrUw0PnxXfCZn6Bulv5-98" style="edgeStyle=orthogonalEdgeStyle;curved=1;rounded=0;orthogonalLoop=1;jettySize=auto;html=1;exitX=0.5;exitY=0;exitDx=0;exitDy=0;entryX=0.5;entryY=0;entryDx=0;entryDy=0;dashed=1;dashPattern=1 1;endArrow=none;startFill=0;" edge="1" parent="4BrUw0PnxXfCZn6Bulv5-111" source="4BrUw0PnxXfCZn6Bulv5-79" target="4BrUw0PnxXfCZn6Bulv5-88">
          <mxGeometry relative="1" as="geometry" />
        </mxCell>
        <mxCell id="4BrUw0PnxXfCZn6Bulv5-79" value="" style="rhombus;whiteSpace=wrap;html=1;fillColor=#d80073;strokeColor=none;fontColor=#ffffff;" vertex="1" parent="4BrUw0PnxXfCZn6Bulv5-111">
          <mxGeometry x="36" y="57" width="14" height="14" as="geometry" />
        </mxCell>
        <mxCell id="4BrUw0PnxXfCZn6Bulv5-88" value="" style="triangle;whiteSpace=wrap;html=1;fillColor=#d80073;fontColor=#ffffff;strokeColor=#A50040;" vertex="1" parent="4BrUw0PnxXfCZn6Bulv5-111">
          <mxGeometry x="39.25" y="36" width="8" height="7" as="geometry" />
        </mxCell>
        <mxCell id="4BrUw0PnxXfCZn6Bulv5-117" value="" style="ellipse;whiteSpace=wrap;html=1;aspect=fixed;fillColor=none;dashed=1;dashPattern=8 8;strokeColor=light-dark(#ec2222, #ededed);" vertex="1" parent="4BrUw0PnxXfCZn6Bulv5-111">
          <mxGeometry x="-5" y="-3.5" width="83" height="83" as="geometry" />
        </mxCell>
        <mxCell id="4BrUw0PnxXfCZn6Bulv5-154" value="" style="ellipse;whiteSpace=wrap;html=1;aspect=fixed;dashed=1;dashPattern=8 8;fillColor=none;strokeColor=#00FF00;" vertex="1" parent="4BrUw0PnxXfCZn6Bulv5-111">
          <mxGeometry x="61.25" y="63" width="62" height="62" as="geometry" />
        </mxCell>
        <mxCell id="4BrUw0PnxXfCZn6Bulv5-157" value="" style="endArrow=none;html=1;rounded=0;exitX=0.687;exitY=0.987;exitDx=0;exitDy=0;exitPerimeter=0;entryX=0.057;entryY=0.352;entryDx=0;entryDy=0;entryPerimeter=0;" edge="1" parent="4BrUw0PnxXfCZn6Bulv5-111" source="4BrUw0PnxXfCZn6Bulv5-117" target="4BrUw0PnxXfCZn6Bulv5-154">
          <mxGeometry width="50" height="50" relative="1" as="geometry">
            <mxPoint x="187" y="-63" as="sourcePoint" />
            <mxPoint x="237" y="-113" as="targetPoint" />
          </mxGeometry>
        </mxCell>
        <mxCell id="4BrUw0PnxXfCZn6Bulv5-160" value="类间" style="text;html=1;align=center;verticalAlign=middle;resizable=0;points=[];autosize=1;strokeColor=none;fillColor=none;" vertex="1" parent="4BrUw0PnxXfCZn6Bulv5-111">
          <mxGeometry x="71.25" y="-5" width="42" height="26" as="geometry" />
        </mxCell>
        <mxCell id="4BrUw0PnxXfCZn6Bulv5-113" value="" style="group;movable=0;resizable=0;rotatable=0;deletable=0;editable=0;locked=1;connectable=0;" vertex="1" connectable="0" parent="1">
          <mxGeometry x="265.25" y="1004" width="52.75" height="49" as="geometry" />
        </mxCell>
        <mxCell id="4BrUw0PnxXfCZn6Bulv5-82" value="" style="ellipse;whiteSpace=wrap;html=1;aspect=fixed;fillColor=#60a917;fontColor=#ffffff;strokeColor=none;movable=0;resizable=0;rotatable=0;deletable=0;editable=0;locked=1;connectable=0;" vertex="1" parent="4BrUw0PnxXfCZn6Bulv5-113">
          <mxGeometry y="20.5" width="14" height="14" as="geometry" />
        </mxCell>
        <mxCell id="4BrUw0PnxXfCZn6Bulv5-112" value="" style="group;movable=1;resizable=1;rotatable=1;deletable=1;editable=1;locked=0;connectable=1;" vertex="1" connectable="0" parent="4BrUw0PnxXfCZn6Bulv5-113">
          <mxGeometry x="17" width="35.75" height="49" as="geometry" />
        </mxCell>
        <mxCell id="4BrUw0PnxXfCZn6Bulv5-107" style="edgeStyle=orthogonalEdgeStyle;curved=1;rounded=0;orthogonalLoop=1;jettySize=auto;html=1;exitX=1;exitY=1;exitDx=0;exitDy=0;entryX=0;entryY=0.5;entryDx=0;entryDy=0;dashed=1;dashPattern=1 1;endArrow=none;startFill=0;movable=0;resizable=0;rotatable=0;deletable=0;editable=0;locked=1;connectable=0;" edge="1" parent="4BrUw0PnxXfCZn6Bulv5-112" source="4BrUw0PnxXfCZn6Bulv5-80" target="4BrUw0PnxXfCZn6Bulv5-106">
          <mxGeometry relative="1" as="geometry" />
        </mxCell>
        <mxCell id="4BrUw0PnxXfCZn6Bulv5-80" value="" style="ellipse;whiteSpace=wrap;html=1;aspect=fixed;fillColor=#60a917;fontColor=#ffffff;strokeColor=none;movable=1;resizable=1;rotatable=1;deletable=1;editable=1;locked=0;connectable=1;" vertex="1" parent="4BrUw0PnxXfCZn6Bulv5-112">
          <mxGeometry width="14" height="14" as="geometry" />
        </mxCell>
        <mxCell id="4BrUw0PnxXfCZn6Bulv5-108" style="edgeStyle=orthogonalEdgeStyle;curved=1;rounded=0;orthogonalLoop=1;jettySize=auto;html=1;exitX=0;exitY=1;exitDx=0;exitDy=0;entryX=0;entryY=0.25;entryDx=0;entryDy=0;dashed=1;dashPattern=1 1;endArrow=none;startFill=0;movable=0;resizable=0;rotatable=0;deletable=0;editable=0;locked=1;connectable=0;" edge="1" parent="4BrUw0PnxXfCZn6Bulv5-112" source="4BrUw0PnxXfCZn6Bulv5-81" target="4BrUw0PnxXfCZn6Bulv5-106">
          <mxGeometry relative="1" as="geometry" />
        </mxCell>
        <mxCell id="4BrUw0PnxXfCZn6Bulv5-81" value="" style="ellipse;whiteSpace=wrap;html=1;aspect=fixed;fillColor=#60a917;fontColor=#ffffff;strokeColor=none;movable=0;resizable=0;rotatable=0;deletable=0;editable=0;locked=1;connectable=0;" vertex="1" parent="4BrUw0PnxXfCZn6Bulv5-112">
          <mxGeometry x="21.75" y="13" width="14" height="14" as="geometry" />
        </mxCell>
        <mxCell id="4BrUw0PnxXfCZn6Bulv5-110" style="edgeStyle=orthogonalEdgeStyle;curved=1;rounded=0;orthogonalLoop=1;jettySize=auto;html=1;exitX=0;exitY=0.5;exitDx=0;exitDy=0;entryX=0;entryY=0.75;entryDx=0;entryDy=0;dashed=1;dashPattern=1 1;endArrow=none;startFill=0;movable=0;resizable=0;rotatable=0;deletable=0;editable=0;locked=1;connectable=0;" edge="1" parent="4BrUw0PnxXfCZn6Bulv5-112" source="4BrUw0PnxXfCZn6Bulv5-83" target="4BrUw0PnxXfCZn6Bulv5-106">
          <mxGeometry relative="1" as="geometry" />
        </mxCell>
        <mxCell id="4BrUw0PnxXfCZn6Bulv5-83" value="" style="ellipse;whiteSpace=wrap;html=1;aspect=fixed;fillColor=#60a917;fontColor=#ffffff;strokeColor=none;movable=0;resizable=0;rotatable=0;deletable=0;editable=0;locked=1;connectable=0;" vertex="1" parent="4BrUw0PnxXfCZn6Bulv5-112">
          <mxGeometry x="10.75" y="35" width="14" height="14" as="geometry" />
        </mxCell>
        <mxCell id="4BrUw0PnxXfCZn6Bulv5-106" value="" style="triangle;whiteSpace=wrap;html=1;fillColor=#60a917;fontColor=#ffffff;strokeColor=#2D7600;movable=0;resizable=0;rotatable=0;deletable=0;editable=0;locked=1;connectable=0;" vertex="1" parent="4BrUw0PnxXfCZn6Bulv5-112">
          <mxGeometry x="8.75" y="24" width="8" height="7" as="geometry" />
        </mxCell>
        <mxCell id="4BrUw0PnxXfCZn6Bulv5-109" style="edgeStyle=orthogonalEdgeStyle;curved=1;rounded=0;orthogonalLoop=1;jettySize=auto;html=1;exitX=1;exitY=0.5;exitDx=0;exitDy=0;entryX=0.5;entryY=0;entryDx=0;entryDy=0;dashed=1;dashPattern=1 1;endArrow=none;startFill=0;movable=0;resizable=0;rotatable=0;deletable=0;editable=0;locked=1;connectable=0;" edge="1" parent="4BrUw0PnxXfCZn6Bulv5-113" source="4BrUw0PnxXfCZn6Bulv5-82" target="4BrUw0PnxXfCZn6Bulv5-106">
          <mxGeometry relative="1" as="geometry" />
        </mxCell>
        <mxCell id="4BrUw0PnxXfCZn6Bulv5-114" value="" style="group" vertex="1" connectable="0" parent="1">
          <mxGeometry x="323" y="934" width="61.5" height="63" as="geometry" />
        </mxCell>
        <mxCell id="4BrUw0PnxXfCZn6Bulv5-103" style="edgeStyle=orthogonalEdgeStyle;curved=1;rounded=0;orthogonalLoop=1;jettySize=auto;html=1;exitX=1;exitY=0.5;exitDx=0;exitDy=0;entryX=0;entryY=0.25;entryDx=0;entryDy=0;dashed=1;dashPattern=1 1;endArrow=none;startFill=0;" edge="1" parent="4BrUw0PnxXfCZn6Bulv5-114" source="4BrUw0PnxXfCZn6Bulv5-70" target="4BrUw0PnxXfCZn6Bulv5-101">
          <mxGeometry relative="1" as="geometry" />
        </mxCell>
        <mxCell id="4BrUw0PnxXfCZn6Bulv5-70" value="" style="whiteSpace=wrap;html=1;aspect=fixed;fillColor=#1ba1e2;strokeColor=none;fontColor=#ffffff;" vertex="1" parent="4BrUw0PnxXfCZn6Bulv5-114">
          <mxGeometry y="16" width="13" height="13" as="geometry" />
        </mxCell>
        <mxCell id="4BrUw0PnxXfCZn6Bulv5-102" style="edgeStyle=orthogonalEdgeStyle;curved=1;rounded=0;orthogonalLoop=1;jettySize=auto;html=1;exitX=0.25;exitY=1;exitDx=0;exitDy=0;entryX=0.5;entryY=0;entryDx=0;entryDy=0;dashed=1;dashPattern=1 1;endArrow=none;startFill=0;" edge="1" parent="4BrUw0PnxXfCZn6Bulv5-114" source="4BrUw0PnxXfCZn6Bulv5-71" target="4BrUw0PnxXfCZn6Bulv5-101">
          <mxGeometry relative="1" as="geometry" />
        </mxCell>
        <mxCell id="4BrUw0PnxXfCZn6Bulv5-71" value="" style="whiteSpace=wrap;html=1;aspect=fixed;fillColor=#1ba1e2;strokeColor=none;fontColor=#ffffff;" vertex="1" parent="4BrUw0PnxXfCZn6Bulv5-114">
          <mxGeometry x="25" width="13" height="13" as="geometry" />
        </mxCell>
        <mxCell id="4BrUw0PnxXfCZn6Bulv5-105" style="edgeStyle=orthogonalEdgeStyle;curved=1;rounded=0;orthogonalLoop=1;jettySize=auto;html=1;exitX=0.5;exitY=0;exitDx=0;exitDy=0;entryX=1;entryY=0.5;entryDx=0;entryDy=0;dashed=1;dashPattern=1 1;endArrow=none;startFill=0;" edge="1" parent="4BrUw0PnxXfCZn6Bulv5-114" source="4BrUw0PnxXfCZn6Bulv5-72" target="4BrUw0PnxXfCZn6Bulv5-101">
          <mxGeometry relative="1" as="geometry" />
        </mxCell>
        <mxCell id="4BrUw0PnxXfCZn6Bulv5-72" value="" style="whiteSpace=wrap;html=1;aspect=fixed;fillColor=#1ba1e2;strokeColor=none;fontColor=#ffffff;" vertex="1" parent="4BrUw0PnxXfCZn6Bulv5-114">
          <mxGeometry x="35" y="37" width="13" height="13" as="geometry" />
        </mxCell>
        <mxCell id="4BrUw0PnxXfCZn6Bulv5-101" value="" style="triangle;whiteSpace=wrap;html=1;fillColor=#0050ef;fontColor=#ffffff;strokeColor=#001DBC;" vertex="1" parent="4BrUw0PnxXfCZn6Bulv5-114">
          <mxGeometry x="21" y="22" width="8" height="7" as="geometry" />
        </mxCell>
        <mxCell id="4BrUw0PnxXfCZn6Bulv5-153" value="" style="ellipse;whiteSpace=wrap;html=1;aspect=fixed;fillColor=none;dashed=1;dashPattern=8 8;strokeColor=#5B3BFF;" vertex="1" parent="4BrUw0PnxXfCZn6Bulv5-114">
          <mxGeometry x="-13.5" y="-12" width="75" height="75" as="geometry" />
        </mxCell>
        <mxCell id="4BrUw0PnxXfCZn6Bulv5-155" value="" style="shape=flexArrow;endArrow=classic;html=1;rounded=0;" edge="1" parent="1">
          <mxGeometry width="50" height="50" relative="1" as="geometry">
            <mxPoint x="133" y="1000" as="sourcePoint" />
            <mxPoint x="194" y="1000" as="targetPoint" />
          </mxGeometry>
        </mxCell>
        <mxCell id="4BrUw0PnxXfCZn6Bulv5-156" value="" style="endArrow=none;html=1;rounded=0;entryX=0.986;entryY=0.389;entryDx=0;entryDy=0;entryPerimeter=0;exitX=0;exitY=0.5;exitDx=0;exitDy=0;" edge="1" parent="1" source="4BrUw0PnxXfCZn6Bulv5-153" target="4BrUw0PnxXfCZn6Bulv5-117">
          <mxGeometry width="50" height="50" relative="1" as="geometry">
            <mxPoint x="166" y="890" as="sourcePoint" />
            <mxPoint x="216" y="840" as="targetPoint" />
          </mxGeometry>
        </mxCell>
        <mxCell id="4BrUw0PnxXfCZn6Bulv5-159" value="" style="endArrow=none;html=1;rounded=0;entryX=0.96;entryY=0.326;entryDx=0;entryDy=0;entryPerimeter=0;exitX=0.327;exitY=0.989;exitDx=0;exitDy=0;exitPerimeter=0;" edge="1" parent="1" source="4BrUw0PnxXfCZn6Bulv5-153" target="4BrUw0PnxXfCZn6Bulv5-154">
          <mxGeometry width="50" height="50" relative="1" as="geometry">
            <mxPoint x="320" y="970" as="sourcePoint" />
            <mxPoint x="289" y="976" as="targetPoint" />
          </mxGeometry>
        </mxCell>
        <mxCell id="4BrUw0PnxXfCZn6Bulv5-162" value="(a)" style="text;html=1;align=center;verticalAlign=middle;resizable=0;points=[];autosize=1;strokeColor=none;fillColor=none;" vertex="1" parent="1">
          <mxGeometry x="50" y="1068" width="33" height="26" as="geometry" />
        </mxCell>
        <mxCell id="4BrUw0PnxXfCZn6Bulv5-163" value="(b)" style="text;html=1;align=center;verticalAlign=middle;resizable=0;points=[];autosize=1;strokeColor=none;fillColor=none;" vertex="1" parent="1">
          <mxGeometry x="281" y="1068" width="33" height="26" as="geometry" />
        </mxCell>
      </root>
    </mxGraphModel>
  </diagram>
</mxfile>
